# xmcd
#
# Track frame offsets: 
#        150
#        34985
#        72612
#        106037
#        139099
#        171244
#        192551
#        208691
#        226525
#
# Disc length: 3680 seconds
#
# Revision: 0
# Processed by: cddbd v1.5.1PL2 Copyright (c) Steve Scherf et al.
# Submitted via: ExactAudioCopy v0.95b1
#
DISCID=7f0e5e09
DTITLE=Ulli Kron and Daniel Thentz - The Swiss-German Swinging Blues Con
DTITLE=nection - Live and host at the Farmhouse
DYEAR=2005
DGENRE=Blues
TTITLE0=Centerpiece
TTITLE1=Don't get around much any more
TTITLE2=Willow weep for me
TTITLE3=Summertime
TTITLE4=Take the A-train
TTITLE5=What a wonderful world
TTITLE6=Nina's groove
TTITLE7=Swanee River
TTITLE8=Bedroom Blues
EXTD=
EXTT0=
EXTT1=
EXTT2=
EXTT3=
EXTT4=
EXTT5=
EXTT6=
EXTT7=
EXTT8=
PLAYORDER=
